%TF.GenerationSoftware,KiCad,Pcbnew,8.0.5*%
%TF.CreationDate,2024-09-18T16:37:26+03:00*%
%TF.ProjectId,TDR_test,5444525f-7465-4737-942e-6b696361645f,rev?*%
%TF.SameCoordinates,Original*%
%TF.FileFunction,Legend,Top*%
%TF.FilePolarity,Positive*%
%FSLAX46Y46*%
G04 Gerber Fmt 4.6, Leading zero omitted, Abs format (unit mm)*
G04 Created by KiCad (PCBNEW 8.0.5) date 2024-09-18 16:37:26*
%MOMM*%
%LPD*%
G01*
G04 APERTURE LIST*
%ADD10C,0.150000*%
%ADD11C,0.120000*%
G04 APERTURE END LIST*
D10*
X157039580Y-109642857D02*
X157087200Y-109690476D01*
X157087200Y-109690476D02*
X157134819Y-109833333D01*
X157134819Y-109833333D02*
X157134819Y-109928571D01*
X157134819Y-109928571D02*
X157087200Y-110071428D01*
X157087200Y-110071428D02*
X156991961Y-110166666D01*
X156991961Y-110166666D02*
X156896723Y-110214285D01*
X156896723Y-110214285D02*
X156706247Y-110261904D01*
X156706247Y-110261904D02*
X156563390Y-110261904D01*
X156563390Y-110261904D02*
X156372914Y-110214285D01*
X156372914Y-110214285D02*
X156277676Y-110166666D01*
X156277676Y-110166666D02*
X156182438Y-110071428D01*
X156182438Y-110071428D02*
X156134819Y-109928571D01*
X156134819Y-109928571D02*
X156134819Y-109833333D01*
X156134819Y-109833333D02*
X156182438Y-109690476D01*
X156182438Y-109690476D02*
X156230057Y-109642857D01*
X157134819Y-108690476D02*
X157134819Y-109261904D01*
X157134819Y-108976190D02*
X156134819Y-108976190D01*
X156134819Y-108976190D02*
X156277676Y-109071428D01*
X156277676Y-109071428D02*
X156372914Y-109166666D01*
X156372914Y-109166666D02*
X156420533Y-109261904D01*
X156134819Y-108071428D02*
X156134819Y-107976190D01*
X156134819Y-107976190D02*
X156182438Y-107880952D01*
X156182438Y-107880952D02*
X156230057Y-107833333D01*
X156230057Y-107833333D02*
X156325295Y-107785714D01*
X156325295Y-107785714D02*
X156515771Y-107738095D01*
X156515771Y-107738095D02*
X156753866Y-107738095D01*
X156753866Y-107738095D02*
X156944342Y-107785714D01*
X156944342Y-107785714D02*
X157039580Y-107833333D01*
X157039580Y-107833333D02*
X157087200Y-107880952D01*
X157087200Y-107880952D02*
X157134819Y-107976190D01*
X157134819Y-107976190D02*
X157134819Y-108071428D01*
X157134819Y-108071428D02*
X157087200Y-108166666D01*
X157087200Y-108166666D02*
X157039580Y-108214285D01*
X157039580Y-108214285D02*
X156944342Y-108261904D01*
X156944342Y-108261904D02*
X156753866Y-108309523D01*
X156753866Y-108309523D02*
X156515771Y-108309523D01*
X156515771Y-108309523D02*
X156325295Y-108261904D01*
X156325295Y-108261904D02*
X156230057Y-108214285D01*
X156230057Y-108214285D02*
X156182438Y-108166666D01*
X156182438Y-108166666D02*
X156134819Y-108071428D01*
X132039580Y-99166666D02*
X132087200Y-99214285D01*
X132087200Y-99214285D02*
X132134819Y-99357142D01*
X132134819Y-99357142D02*
X132134819Y-99452380D01*
X132134819Y-99452380D02*
X132087200Y-99595237D01*
X132087200Y-99595237D02*
X131991961Y-99690475D01*
X131991961Y-99690475D02*
X131896723Y-99738094D01*
X131896723Y-99738094D02*
X131706247Y-99785713D01*
X131706247Y-99785713D02*
X131563390Y-99785713D01*
X131563390Y-99785713D02*
X131372914Y-99738094D01*
X131372914Y-99738094D02*
X131277676Y-99690475D01*
X131277676Y-99690475D02*
X131182438Y-99595237D01*
X131182438Y-99595237D02*
X131134819Y-99452380D01*
X131134819Y-99452380D02*
X131134819Y-99357142D01*
X131134819Y-99357142D02*
X131182438Y-99214285D01*
X131182438Y-99214285D02*
X131230057Y-99166666D01*
X132134819Y-98690475D02*
X132134819Y-98499999D01*
X132134819Y-98499999D02*
X132087200Y-98404761D01*
X132087200Y-98404761D02*
X132039580Y-98357142D01*
X132039580Y-98357142D02*
X131896723Y-98261904D01*
X131896723Y-98261904D02*
X131706247Y-98214285D01*
X131706247Y-98214285D02*
X131325295Y-98214285D01*
X131325295Y-98214285D02*
X131230057Y-98261904D01*
X131230057Y-98261904D02*
X131182438Y-98309523D01*
X131182438Y-98309523D02*
X131134819Y-98404761D01*
X131134819Y-98404761D02*
X131134819Y-98595237D01*
X131134819Y-98595237D02*
X131182438Y-98690475D01*
X131182438Y-98690475D02*
X131230057Y-98738094D01*
X131230057Y-98738094D02*
X131325295Y-98785713D01*
X131325295Y-98785713D02*
X131563390Y-98785713D01*
X131563390Y-98785713D02*
X131658628Y-98738094D01*
X131658628Y-98738094D02*
X131706247Y-98690475D01*
X131706247Y-98690475D02*
X131753866Y-98595237D01*
X131753866Y-98595237D02*
X131753866Y-98404761D01*
X131753866Y-98404761D02*
X131706247Y-98309523D01*
X131706247Y-98309523D02*
X131658628Y-98261904D01*
X131658628Y-98261904D02*
X131563390Y-98214285D01*
X132679580Y-125166666D02*
X132727200Y-125214285D01*
X132727200Y-125214285D02*
X132774819Y-125357142D01*
X132774819Y-125357142D02*
X132774819Y-125452380D01*
X132774819Y-125452380D02*
X132727200Y-125595237D01*
X132727200Y-125595237D02*
X132631961Y-125690475D01*
X132631961Y-125690475D02*
X132536723Y-125738094D01*
X132536723Y-125738094D02*
X132346247Y-125785713D01*
X132346247Y-125785713D02*
X132203390Y-125785713D01*
X132203390Y-125785713D02*
X132012914Y-125738094D01*
X132012914Y-125738094D02*
X131917676Y-125690475D01*
X131917676Y-125690475D02*
X131822438Y-125595237D01*
X131822438Y-125595237D02*
X131774819Y-125452380D01*
X131774819Y-125452380D02*
X131774819Y-125357142D01*
X131774819Y-125357142D02*
X131822438Y-125214285D01*
X131822438Y-125214285D02*
X131870057Y-125166666D01*
X132203390Y-124595237D02*
X132155771Y-124690475D01*
X132155771Y-124690475D02*
X132108152Y-124738094D01*
X132108152Y-124738094D02*
X132012914Y-124785713D01*
X132012914Y-124785713D02*
X131965295Y-124785713D01*
X131965295Y-124785713D02*
X131870057Y-124738094D01*
X131870057Y-124738094D02*
X131822438Y-124690475D01*
X131822438Y-124690475D02*
X131774819Y-124595237D01*
X131774819Y-124595237D02*
X131774819Y-124404761D01*
X131774819Y-124404761D02*
X131822438Y-124309523D01*
X131822438Y-124309523D02*
X131870057Y-124261904D01*
X131870057Y-124261904D02*
X131965295Y-124214285D01*
X131965295Y-124214285D02*
X132012914Y-124214285D01*
X132012914Y-124214285D02*
X132108152Y-124261904D01*
X132108152Y-124261904D02*
X132155771Y-124309523D01*
X132155771Y-124309523D02*
X132203390Y-124404761D01*
X132203390Y-124404761D02*
X132203390Y-124595237D01*
X132203390Y-124595237D02*
X132251009Y-124690475D01*
X132251009Y-124690475D02*
X132298628Y-124738094D01*
X132298628Y-124738094D02*
X132393866Y-124785713D01*
X132393866Y-124785713D02*
X132584342Y-124785713D01*
X132584342Y-124785713D02*
X132679580Y-124738094D01*
X132679580Y-124738094D02*
X132727200Y-124690475D01*
X132727200Y-124690475D02*
X132774819Y-124595237D01*
X132774819Y-124595237D02*
X132774819Y-124404761D01*
X132774819Y-124404761D02*
X132727200Y-124309523D01*
X132727200Y-124309523D02*
X132679580Y-124261904D01*
X132679580Y-124261904D02*
X132584342Y-124214285D01*
X132584342Y-124214285D02*
X132393866Y-124214285D01*
X132393866Y-124214285D02*
X132298628Y-124261904D01*
X132298628Y-124261904D02*
X132251009Y-124309523D01*
X132251009Y-124309523D02*
X132203390Y-124404761D01*
X133039580Y-125166666D02*
X133087200Y-125214285D01*
X133087200Y-125214285D02*
X133134819Y-125357142D01*
X133134819Y-125357142D02*
X133134819Y-125452380D01*
X133134819Y-125452380D02*
X133087200Y-125595237D01*
X133087200Y-125595237D02*
X132991961Y-125690475D01*
X132991961Y-125690475D02*
X132896723Y-125738094D01*
X132896723Y-125738094D02*
X132706247Y-125785713D01*
X132706247Y-125785713D02*
X132563390Y-125785713D01*
X132563390Y-125785713D02*
X132372914Y-125738094D01*
X132372914Y-125738094D02*
X132277676Y-125690475D01*
X132277676Y-125690475D02*
X132182438Y-125595237D01*
X132182438Y-125595237D02*
X132134819Y-125452380D01*
X132134819Y-125452380D02*
X132134819Y-125357142D01*
X132134819Y-125357142D02*
X132182438Y-125214285D01*
X132182438Y-125214285D02*
X132230057Y-125166666D01*
X132134819Y-124833332D02*
X132134819Y-124166666D01*
X132134819Y-124166666D02*
X133134819Y-124595237D01*
X135833333Y-79039580D02*
X135785714Y-79087200D01*
X135785714Y-79087200D02*
X135642857Y-79134819D01*
X135642857Y-79134819D02*
X135547619Y-79134819D01*
X135547619Y-79134819D02*
X135404762Y-79087200D01*
X135404762Y-79087200D02*
X135309524Y-78991961D01*
X135309524Y-78991961D02*
X135261905Y-78896723D01*
X135261905Y-78896723D02*
X135214286Y-78706247D01*
X135214286Y-78706247D02*
X135214286Y-78563390D01*
X135214286Y-78563390D02*
X135261905Y-78372914D01*
X135261905Y-78372914D02*
X135309524Y-78277676D01*
X135309524Y-78277676D02*
X135404762Y-78182438D01*
X135404762Y-78182438D02*
X135547619Y-78134819D01*
X135547619Y-78134819D02*
X135642857Y-78134819D01*
X135642857Y-78134819D02*
X135785714Y-78182438D01*
X135785714Y-78182438D02*
X135833333Y-78230057D01*
X136690476Y-78468152D02*
X136690476Y-79134819D01*
X136452381Y-78087200D02*
X136214286Y-78801485D01*
X136214286Y-78801485D02*
X136833333Y-78801485D01*
X128833333Y-79039580D02*
X128785714Y-79087200D01*
X128785714Y-79087200D02*
X128642857Y-79134819D01*
X128642857Y-79134819D02*
X128547619Y-79134819D01*
X128547619Y-79134819D02*
X128404762Y-79087200D01*
X128404762Y-79087200D02*
X128309524Y-78991961D01*
X128309524Y-78991961D02*
X128261905Y-78896723D01*
X128261905Y-78896723D02*
X128214286Y-78706247D01*
X128214286Y-78706247D02*
X128214286Y-78563390D01*
X128214286Y-78563390D02*
X128261905Y-78372914D01*
X128261905Y-78372914D02*
X128309524Y-78277676D01*
X128309524Y-78277676D02*
X128404762Y-78182438D01*
X128404762Y-78182438D02*
X128547619Y-78134819D01*
X128547619Y-78134819D02*
X128642857Y-78134819D01*
X128642857Y-78134819D02*
X128785714Y-78182438D01*
X128785714Y-78182438D02*
X128833333Y-78230057D01*
X129166667Y-78134819D02*
X129785714Y-78134819D01*
X129785714Y-78134819D02*
X129452381Y-78515771D01*
X129452381Y-78515771D02*
X129595238Y-78515771D01*
X129595238Y-78515771D02*
X129690476Y-78563390D01*
X129690476Y-78563390D02*
X129738095Y-78611009D01*
X129738095Y-78611009D02*
X129785714Y-78706247D01*
X129785714Y-78706247D02*
X129785714Y-78944342D01*
X129785714Y-78944342D02*
X129738095Y-79039580D01*
X129738095Y-79039580D02*
X129690476Y-79087200D01*
X129690476Y-79087200D02*
X129595238Y-79134819D01*
X129595238Y-79134819D02*
X129309524Y-79134819D01*
X129309524Y-79134819D02*
X129214286Y-79087200D01*
X129214286Y-79087200D02*
X129166667Y-79039580D01*
X80833333Y-122039580D02*
X80785714Y-122087200D01*
X80785714Y-122087200D02*
X80642857Y-122134819D01*
X80642857Y-122134819D02*
X80547619Y-122134819D01*
X80547619Y-122134819D02*
X80404762Y-122087200D01*
X80404762Y-122087200D02*
X80309524Y-121991961D01*
X80309524Y-121991961D02*
X80261905Y-121896723D01*
X80261905Y-121896723D02*
X80214286Y-121706247D01*
X80214286Y-121706247D02*
X80214286Y-121563390D01*
X80214286Y-121563390D02*
X80261905Y-121372914D01*
X80261905Y-121372914D02*
X80309524Y-121277676D01*
X80309524Y-121277676D02*
X80404762Y-121182438D01*
X80404762Y-121182438D02*
X80547619Y-121134819D01*
X80547619Y-121134819D02*
X80642857Y-121134819D01*
X80642857Y-121134819D02*
X80785714Y-121182438D01*
X80785714Y-121182438D02*
X80833333Y-121230057D01*
X81214286Y-121230057D02*
X81261905Y-121182438D01*
X81261905Y-121182438D02*
X81357143Y-121134819D01*
X81357143Y-121134819D02*
X81595238Y-121134819D01*
X81595238Y-121134819D02*
X81690476Y-121182438D01*
X81690476Y-121182438D02*
X81738095Y-121230057D01*
X81738095Y-121230057D02*
X81785714Y-121325295D01*
X81785714Y-121325295D02*
X81785714Y-121420533D01*
X81785714Y-121420533D02*
X81738095Y-121563390D01*
X81738095Y-121563390D02*
X81166667Y-122134819D01*
X81166667Y-122134819D02*
X81785714Y-122134819D01*
X80833333Y-110039580D02*
X80785714Y-110087200D01*
X80785714Y-110087200D02*
X80642857Y-110134819D01*
X80642857Y-110134819D02*
X80547619Y-110134819D01*
X80547619Y-110134819D02*
X80404762Y-110087200D01*
X80404762Y-110087200D02*
X80309524Y-109991961D01*
X80309524Y-109991961D02*
X80261905Y-109896723D01*
X80261905Y-109896723D02*
X80214286Y-109706247D01*
X80214286Y-109706247D02*
X80214286Y-109563390D01*
X80214286Y-109563390D02*
X80261905Y-109372914D01*
X80261905Y-109372914D02*
X80309524Y-109277676D01*
X80309524Y-109277676D02*
X80404762Y-109182438D01*
X80404762Y-109182438D02*
X80547619Y-109134819D01*
X80547619Y-109134819D02*
X80642857Y-109134819D01*
X80642857Y-109134819D02*
X80785714Y-109182438D01*
X80785714Y-109182438D02*
X80833333Y-109230057D01*
X81785714Y-110134819D02*
X81214286Y-110134819D01*
X81500000Y-110134819D02*
X81500000Y-109134819D01*
X81500000Y-109134819D02*
X81404762Y-109277676D01*
X81404762Y-109277676D02*
X81309524Y-109372914D01*
X81309524Y-109372914D02*
X81214286Y-109420533D01*
X123534819Y-112592857D02*
X123058628Y-112926190D01*
X123534819Y-113164285D02*
X122534819Y-113164285D01*
X122534819Y-113164285D02*
X122534819Y-112783333D01*
X122534819Y-112783333D02*
X122582438Y-112688095D01*
X122582438Y-112688095D02*
X122630057Y-112640476D01*
X122630057Y-112640476D02*
X122725295Y-112592857D01*
X122725295Y-112592857D02*
X122868152Y-112592857D01*
X122868152Y-112592857D02*
X122963390Y-112640476D01*
X122963390Y-112640476D02*
X123011009Y-112688095D01*
X123011009Y-112688095D02*
X123058628Y-112783333D01*
X123058628Y-112783333D02*
X123058628Y-113164285D01*
X123534819Y-111640476D02*
X123534819Y-112211904D01*
X123534819Y-111926190D02*
X122534819Y-111926190D01*
X122534819Y-111926190D02*
X122677676Y-112021428D01*
X122677676Y-112021428D02*
X122772914Y-112116666D01*
X122772914Y-112116666D02*
X122820533Y-112211904D01*
X122534819Y-111307142D02*
X122534819Y-110688095D01*
X122534819Y-110688095D02*
X122915771Y-111021428D01*
X122915771Y-111021428D02*
X122915771Y-110878571D01*
X122915771Y-110878571D02*
X122963390Y-110783333D01*
X122963390Y-110783333D02*
X123011009Y-110735714D01*
X123011009Y-110735714D02*
X123106247Y-110688095D01*
X123106247Y-110688095D02*
X123344342Y-110688095D01*
X123344342Y-110688095D02*
X123439580Y-110735714D01*
X123439580Y-110735714D02*
X123487200Y-110783333D01*
X123487200Y-110783333D02*
X123534819Y-110878571D01*
X123534819Y-110878571D02*
X123534819Y-111164285D01*
X123534819Y-111164285D02*
X123487200Y-111259523D01*
X123487200Y-111259523D02*
X123439580Y-111307142D01*
X153534819Y-114592857D02*
X153058628Y-114926190D01*
X153534819Y-115164285D02*
X152534819Y-115164285D01*
X152534819Y-115164285D02*
X152534819Y-114783333D01*
X152534819Y-114783333D02*
X152582438Y-114688095D01*
X152582438Y-114688095D02*
X152630057Y-114640476D01*
X152630057Y-114640476D02*
X152725295Y-114592857D01*
X152725295Y-114592857D02*
X152868152Y-114592857D01*
X152868152Y-114592857D02*
X152963390Y-114640476D01*
X152963390Y-114640476D02*
X153011009Y-114688095D01*
X153011009Y-114688095D02*
X153058628Y-114783333D01*
X153058628Y-114783333D02*
X153058628Y-115164285D01*
X153534819Y-113640476D02*
X153534819Y-114211904D01*
X153534819Y-113926190D02*
X152534819Y-113926190D01*
X152534819Y-113926190D02*
X152677676Y-114021428D01*
X152677676Y-114021428D02*
X152772914Y-114116666D01*
X152772914Y-114116666D02*
X152820533Y-114211904D01*
X152630057Y-113259523D02*
X152582438Y-113211904D01*
X152582438Y-113211904D02*
X152534819Y-113116666D01*
X152534819Y-113116666D02*
X152534819Y-112878571D01*
X152534819Y-112878571D02*
X152582438Y-112783333D01*
X152582438Y-112783333D02*
X152630057Y-112735714D01*
X152630057Y-112735714D02*
X152725295Y-112688095D01*
X152725295Y-112688095D02*
X152820533Y-112688095D01*
X152820533Y-112688095D02*
X152963390Y-112735714D01*
X152963390Y-112735714D02*
X153534819Y-113307142D01*
X153534819Y-113307142D02*
X153534819Y-112688095D01*
X143307142Y-102374819D02*
X142973809Y-101898628D01*
X142735714Y-102374819D02*
X142735714Y-101374819D01*
X142735714Y-101374819D02*
X143116666Y-101374819D01*
X143116666Y-101374819D02*
X143211904Y-101422438D01*
X143211904Y-101422438D02*
X143259523Y-101470057D01*
X143259523Y-101470057D02*
X143307142Y-101565295D01*
X143307142Y-101565295D02*
X143307142Y-101708152D01*
X143307142Y-101708152D02*
X143259523Y-101803390D01*
X143259523Y-101803390D02*
X143211904Y-101851009D01*
X143211904Y-101851009D02*
X143116666Y-101898628D01*
X143116666Y-101898628D02*
X142735714Y-101898628D01*
X144259523Y-102374819D02*
X143688095Y-102374819D01*
X143973809Y-102374819D02*
X143973809Y-101374819D01*
X143973809Y-101374819D02*
X143878571Y-101517676D01*
X143878571Y-101517676D02*
X143783333Y-101612914D01*
X143783333Y-101612914D02*
X143688095Y-101660533D01*
X145211904Y-102374819D02*
X144640476Y-102374819D01*
X144926190Y-102374819D02*
X144926190Y-101374819D01*
X144926190Y-101374819D02*
X144830952Y-101517676D01*
X144830952Y-101517676D02*
X144735714Y-101612914D01*
X144735714Y-101612914D02*
X144640476Y-101660533D01*
X152307142Y-103534819D02*
X151973809Y-103058628D01*
X151735714Y-103534819D02*
X151735714Y-102534819D01*
X151735714Y-102534819D02*
X152116666Y-102534819D01*
X152116666Y-102534819D02*
X152211904Y-102582438D01*
X152211904Y-102582438D02*
X152259523Y-102630057D01*
X152259523Y-102630057D02*
X152307142Y-102725295D01*
X152307142Y-102725295D02*
X152307142Y-102868152D01*
X152307142Y-102868152D02*
X152259523Y-102963390D01*
X152259523Y-102963390D02*
X152211904Y-103011009D01*
X152211904Y-103011009D02*
X152116666Y-103058628D01*
X152116666Y-103058628D02*
X151735714Y-103058628D01*
X153259523Y-103534819D02*
X152688095Y-103534819D01*
X152973809Y-103534819D02*
X152973809Y-102534819D01*
X152973809Y-102534819D02*
X152878571Y-102677676D01*
X152878571Y-102677676D02*
X152783333Y-102772914D01*
X152783333Y-102772914D02*
X152688095Y-102820533D01*
X153878571Y-102534819D02*
X153973809Y-102534819D01*
X153973809Y-102534819D02*
X154069047Y-102582438D01*
X154069047Y-102582438D02*
X154116666Y-102630057D01*
X154116666Y-102630057D02*
X154164285Y-102725295D01*
X154164285Y-102725295D02*
X154211904Y-102915771D01*
X154211904Y-102915771D02*
X154211904Y-103153866D01*
X154211904Y-103153866D02*
X154164285Y-103344342D01*
X154164285Y-103344342D02*
X154116666Y-103439580D01*
X154116666Y-103439580D02*
X154069047Y-103487200D01*
X154069047Y-103487200D02*
X153973809Y-103534819D01*
X153973809Y-103534819D02*
X153878571Y-103534819D01*
X153878571Y-103534819D02*
X153783333Y-103487200D01*
X153783333Y-103487200D02*
X153735714Y-103439580D01*
X153735714Y-103439580D02*
X153688095Y-103344342D01*
X153688095Y-103344342D02*
X153640476Y-103153866D01*
X153640476Y-103153866D02*
X153640476Y-102915771D01*
X153640476Y-102915771D02*
X153688095Y-102725295D01*
X153688095Y-102725295D02*
X153735714Y-102630057D01*
X153735714Y-102630057D02*
X153783333Y-102582438D01*
X153783333Y-102582438D02*
X153878571Y-102534819D01*
X98883333Y-56534819D02*
X98550000Y-56058628D01*
X98311905Y-56534819D02*
X98311905Y-55534819D01*
X98311905Y-55534819D02*
X98692857Y-55534819D01*
X98692857Y-55534819D02*
X98788095Y-55582438D01*
X98788095Y-55582438D02*
X98835714Y-55630057D01*
X98835714Y-55630057D02*
X98883333Y-55725295D01*
X98883333Y-55725295D02*
X98883333Y-55868152D01*
X98883333Y-55868152D02*
X98835714Y-55963390D01*
X98835714Y-55963390D02*
X98788095Y-56011009D01*
X98788095Y-56011009D02*
X98692857Y-56058628D01*
X98692857Y-56058628D02*
X98311905Y-56058628D01*
X99359524Y-56534819D02*
X99550000Y-56534819D01*
X99550000Y-56534819D02*
X99645238Y-56487200D01*
X99645238Y-56487200D02*
X99692857Y-56439580D01*
X99692857Y-56439580D02*
X99788095Y-56296723D01*
X99788095Y-56296723D02*
X99835714Y-56106247D01*
X99835714Y-56106247D02*
X99835714Y-55725295D01*
X99835714Y-55725295D02*
X99788095Y-55630057D01*
X99788095Y-55630057D02*
X99740476Y-55582438D01*
X99740476Y-55582438D02*
X99645238Y-55534819D01*
X99645238Y-55534819D02*
X99454762Y-55534819D01*
X99454762Y-55534819D02*
X99359524Y-55582438D01*
X99359524Y-55582438D02*
X99311905Y-55630057D01*
X99311905Y-55630057D02*
X99264286Y-55725295D01*
X99264286Y-55725295D02*
X99264286Y-55963390D01*
X99264286Y-55963390D02*
X99311905Y-56058628D01*
X99311905Y-56058628D02*
X99359524Y-56106247D01*
X99359524Y-56106247D02*
X99454762Y-56153866D01*
X99454762Y-56153866D02*
X99645238Y-56153866D01*
X99645238Y-56153866D02*
X99740476Y-56106247D01*
X99740476Y-56106247D02*
X99788095Y-56058628D01*
X99788095Y-56058628D02*
X99835714Y-55963390D01*
X150783333Y-79374819D02*
X150450000Y-78898628D01*
X150211905Y-79374819D02*
X150211905Y-78374819D01*
X150211905Y-78374819D02*
X150592857Y-78374819D01*
X150592857Y-78374819D02*
X150688095Y-78422438D01*
X150688095Y-78422438D02*
X150735714Y-78470057D01*
X150735714Y-78470057D02*
X150783333Y-78565295D01*
X150783333Y-78565295D02*
X150783333Y-78708152D01*
X150783333Y-78708152D02*
X150735714Y-78803390D01*
X150735714Y-78803390D02*
X150688095Y-78851009D01*
X150688095Y-78851009D02*
X150592857Y-78898628D01*
X150592857Y-78898628D02*
X150211905Y-78898628D01*
X151354762Y-78803390D02*
X151259524Y-78755771D01*
X151259524Y-78755771D02*
X151211905Y-78708152D01*
X151211905Y-78708152D02*
X151164286Y-78612914D01*
X151164286Y-78612914D02*
X151164286Y-78565295D01*
X151164286Y-78565295D02*
X151211905Y-78470057D01*
X151211905Y-78470057D02*
X151259524Y-78422438D01*
X151259524Y-78422438D02*
X151354762Y-78374819D01*
X151354762Y-78374819D02*
X151545238Y-78374819D01*
X151545238Y-78374819D02*
X151640476Y-78422438D01*
X151640476Y-78422438D02*
X151688095Y-78470057D01*
X151688095Y-78470057D02*
X151735714Y-78565295D01*
X151735714Y-78565295D02*
X151735714Y-78612914D01*
X151735714Y-78612914D02*
X151688095Y-78708152D01*
X151688095Y-78708152D02*
X151640476Y-78755771D01*
X151640476Y-78755771D02*
X151545238Y-78803390D01*
X151545238Y-78803390D02*
X151354762Y-78803390D01*
X151354762Y-78803390D02*
X151259524Y-78851009D01*
X151259524Y-78851009D02*
X151211905Y-78898628D01*
X151211905Y-78898628D02*
X151164286Y-78993866D01*
X151164286Y-78993866D02*
X151164286Y-79184342D01*
X151164286Y-79184342D02*
X151211905Y-79279580D01*
X151211905Y-79279580D02*
X151259524Y-79327200D01*
X151259524Y-79327200D02*
X151354762Y-79374819D01*
X151354762Y-79374819D02*
X151545238Y-79374819D01*
X151545238Y-79374819D02*
X151640476Y-79327200D01*
X151640476Y-79327200D02*
X151688095Y-79279580D01*
X151688095Y-79279580D02*
X151735714Y-79184342D01*
X151735714Y-79184342D02*
X151735714Y-78993866D01*
X151735714Y-78993866D02*
X151688095Y-78898628D01*
X151688095Y-78898628D02*
X151640476Y-78851009D01*
X151640476Y-78851009D02*
X151545238Y-78803390D01*
X173214819Y-102348333D02*
X173929104Y-102348333D01*
X173929104Y-102348333D02*
X174071961Y-102395952D01*
X174071961Y-102395952D02*
X174167200Y-102491190D01*
X174167200Y-102491190D02*
X174214819Y-102634047D01*
X174214819Y-102634047D02*
X174214819Y-102729285D01*
X173548152Y-101443571D02*
X174214819Y-101443571D01*
X173167200Y-101681666D02*
X173881485Y-101919761D01*
X173881485Y-101919761D02*
X173881485Y-101300714D01*
X108694819Y-157318333D02*
X109409104Y-157318333D01*
X109409104Y-157318333D02*
X109551961Y-157365952D01*
X109551961Y-157365952D02*
X109647200Y-157461190D01*
X109647200Y-157461190D02*
X109694819Y-157604047D01*
X109694819Y-157604047D02*
X109694819Y-157699285D01*
X108694819Y-156937380D02*
X108694819Y-156318333D01*
X108694819Y-156318333D02*
X109075771Y-156651666D01*
X109075771Y-156651666D02*
X109075771Y-156508809D01*
X109075771Y-156508809D02*
X109123390Y-156413571D01*
X109123390Y-156413571D02*
X109171009Y-156365952D01*
X109171009Y-156365952D02*
X109266247Y-156318333D01*
X109266247Y-156318333D02*
X109504342Y-156318333D01*
X109504342Y-156318333D02*
X109599580Y-156365952D01*
X109599580Y-156365952D02*
X109647200Y-156413571D01*
X109647200Y-156413571D02*
X109694819Y-156508809D01*
X109694819Y-156508809D02*
X109694819Y-156794523D01*
X109694819Y-156794523D02*
X109647200Y-156889761D01*
X109647200Y-156889761D02*
X109599580Y-156937380D01*
X103783333Y-91534819D02*
X103450000Y-91058628D01*
X103211905Y-91534819D02*
X103211905Y-90534819D01*
X103211905Y-90534819D02*
X103592857Y-90534819D01*
X103592857Y-90534819D02*
X103688095Y-90582438D01*
X103688095Y-90582438D02*
X103735714Y-90630057D01*
X103735714Y-90630057D02*
X103783333Y-90725295D01*
X103783333Y-90725295D02*
X103783333Y-90868152D01*
X103783333Y-90868152D02*
X103735714Y-90963390D01*
X103735714Y-90963390D02*
X103688095Y-91011009D01*
X103688095Y-91011009D02*
X103592857Y-91058628D01*
X103592857Y-91058628D02*
X103211905Y-91058628D01*
X104735714Y-91534819D02*
X104164286Y-91534819D01*
X104450000Y-91534819D02*
X104450000Y-90534819D01*
X104450000Y-90534819D02*
X104354762Y-90677676D01*
X104354762Y-90677676D02*
X104259524Y-90772914D01*
X104259524Y-90772914D02*
X104164286Y-90820533D01*
X95694819Y-37818333D02*
X96409104Y-37818333D01*
X96409104Y-37818333D02*
X96551961Y-37865952D01*
X96551961Y-37865952D02*
X96647200Y-37961190D01*
X96647200Y-37961190D02*
X96694819Y-38104047D01*
X96694819Y-38104047D02*
X96694819Y-38199285D01*
X95790057Y-37389761D02*
X95742438Y-37342142D01*
X95742438Y-37342142D02*
X95694819Y-37246904D01*
X95694819Y-37246904D02*
X95694819Y-37008809D01*
X95694819Y-37008809D02*
X95742438Y-36913571D01*
X95742438Y-36913571D02*
X95790057Y-36865952D01*
X95790057Y-36865952D02*
X95885295Y-36818333D01*
X95885295Y-36818333D02*
X95980533Y-36818333D01*
X95980533Y-36818333D02*
X96123390Y-36865952D01*
X96123390Y-36865952D02*
X96694819Y-37437380D01*
X96694819Y-37437380D02*
X96694819Y-36818333D01*
X64271905Y-130464819D02*
X64271905Y-129464819D01*
X64843333Y-130464819D02*
X64414762Y-129893390D01*
X64843333Y-129464819D02*
X64271905Y-130036247D01*
X65795714Y-130464819D02*
X65224286Y-130464819D01*
X65510000Y-130464819D02*
X65510000Y-129464819D01*
X65510000Y-129464819D02*
X65414762Y-129607676D01*
X65414762Y-129607676D02*
X65319524Y-129702914D01*
X65319524Y-129702914D02*
X65224286Y-129750533D01*
X90308628Y-114306190D02*
X90784819Y-114306190D01*
X89784819Y-114639523D02*
X90308628Y-114306190D01*
X90308628Y-114306190D02*
X89784819Y-113972857D01*
X90784819Y-113115714D02*
X90784819Y-113687142D01*
X90784819Y-113401428D02*
X89784819Y-113401428D01*
X89784819Y-113401428D02*
X89927676Y-113496666D01*
X89927676Y-113496666D02*
X90022914Y-113591904D01*
X90022914Y-113591904D02*
X90070533Y-113687142D01*
X51694819Y-159318333D02*
X52409104Y-159318333D01*
X52409104Y-159318333D02*
X52551961Y-159365952D01*
X52551961Y-159365952D02*
X52647200Y-159461190D01*
X52647200Y-159461190D02*
X52694819Y-159604047D01*
X52694819Y-159604047D02*
X52694819Y-159699285D01*
X52694819Y-158318333D02*
X52694819Y-158889761D01*
X52694819Y-158604047D02*
X51694819Y-158604047D01*
X51694819Y-158604047D02*
X51837676Y-158699285D01*
X51837676Y-158699285D02*
X51932914Y-158794523D01*
X51932914Y-158794523D02*
X51980533Y-158889761D01*
X106783333Y-119534819D02*
X106450000Y-119058628D01*
X106211905Y-119534819D02*
X106211905Y-118534819D01*
X106211905Y-118534819D02*
X106592857Y-118534819D01*
X106592857Y-118534819D02*
X106688095Y-118582438D01*
X106688095Y-118582438D02*
X106735714Y-118630057D01*
X106735714Y-118630057D02*
X106783333Y-118725295D01*
X106783333Y-118725295D02*
X106783333Y-118868152D01*
X106783333Y-118868152D02*
X106735714Y-118963390D01*
X106735714Y-118963390D02*
X106688095Y-119011009D01*
X106688095Y-119011009D02*
X106592857Y-119058628D01*
X106592857Y-119058628D02*
X106211905Y-119058628D01*
X107116667Y-118534819D02*
X107735714Y-118534819D01*
X107735714Y-118534819D02*
X107402381Y-118915771D01*
X107402381Y-118915771D02*
X107545238Y-118915771D01*
X107545238Y-118915771D02*
X107640476Y-118963390D01*
X107640476Y-118963390D02*
X107688095Y-119011009D01*
X107688095Y-119011009D02*
X107735714Y-119106247D01*
X107735714Y-119106247D02*
X107735714Y-119344342D01*
X107735714Y-119344342D02*
X107688095Y-119439580D01*
X107688095Y-119439580D02*
X107640476Y-119487200D01*
X107640476Y-119487200D02*
X107545238Y-119534819D01*
X107545238Y-119534819D02*
X107259524Y-119534819D01*
X107259524Y-119534819D02*
X107164286Y-119487200D01*
X107164286Y-119487200D02*
X107116667Y-119439580D01*
X141238095Y-44024819D02*
X141238095Y-44834342D01*
X141238095Y-44834342D02*
X141285714Y-44929580D01*
X141285714Y-44929580D02*
X141333333Y-44977200D01*
X141333333Y-44977200D02*
X141428571Y-45024819D01*
X141428571Y-45024819D02*
X141619047Y-45024819D01*
X141619047Y-45024819D02*
X141714285Y-44977200D01*
X141714285Y-44977200D02*
X141761904Y-44929580D01*
X141761904Y-44929580D02*
X141809523Y-44834342D01*
X141809523Y-44834342D02*
X141809523Y-44024819D01*
X142190476Y-44024819D02*
X142809523Y-44024819D01*
X142809523Y-44024819D02*
X142476190Y-44405771D01*
X142476190Y-44405771D02*
X142619047Y-44405771D01*
X142619047Y-44405771D02*
X142714285Y-44453390D01*
X142714285Y-44453390D02*
X142761904Y-44501009D01*
X142761904Y-44501009D02*
X142809523Y-44596247D01*
X142809523Y-44596247D02*
X142809523Y-44834342D01*
X142809523Y-44834342D02*
X142761904Y-44929580D01*
X142761904Y-44929580D02*
X142714285Y-44977200D01*
X142714285Y-44977200D02*
X142619047Y-45024819D01*
X142619047Y-45024819D02*
X142333333Y-45024819D01*
X142333333Y-45024819D02*
X142238095Y-44977200D01*
X142238095Y-44977200D02*
X142190476Y-44929580D01*
X86199580Y-84606666D02*
X86247200Y-84654285D01*
X86247200Y-84654285D02*
X86294819Y-84797142D01*
X86294819Y-84797142D02*
X86294819Y-84892380D01*
X86294819Y-84892380D02*
X86247200Y-85035237D01*
X86247200Y-85035237D02*
X86151961Y-85130475D01*
X86151961Y-85130475D02*
X86056723Y-85178094D01*
X86056723Y-85178094D02*
X85866247Y-85225713D01*
X85866247Y-85225713D02*
X85723390Y-85225713D01*
X85723390Y-85225713D02*
X85532914Y-85178094D01*
X85532914Y-85178094D02*
X85437676Y-85130475D01*
X85437676Y-85130475D02*
X85342438Y-85035237D01*
X85342438Y-85035237D02*
X85294819Y-84892380D01*
X85294819Y-84892380D02*
X85294819Y-84797142D01*
X85294819Y-84797142D02*
X85342438Y-84654285D01*
X85342438Y-84654285D02*
X85390057Y-84606666D01*
X85294819Y-83701904D02*
X85294819Y-84178094D01*
X85294819Y-84178094D02*
X85771009Y-84225713D01*
X85771009Y-84225713D02*
X85723390Y-84178094D01*
X85723390Y-84178094D02*
X85675771Y-84082856D01*
X85675771Y-84082856D02*
X85675771Y-83844761D01*
X85675771Y-83844761D02*
X85723390Y-83749523D01*
X85723390Y-83749523D02*
X85771009Y-83701904D01*
X85771009Y-83701904D02*
X85866247Y-83654285D01*
X85866247Y-83654285D02*
X86104342Y-83654285D01*
X86104342Y-83654285D02*
X86199580Y-83701904D01*
X86199580Y-83701904D02*
X86247200Y-83749523D01*
X86247200Y-83749523D02*
X86294819Y-83844761D01*
X86294819Y-83844761D02*
X86294819Y-84082856D01*
X86294819Y-84082856D02*
X86247200Y-84178094D01*
X86247200Y-84178094D02*
X86199580Y-84225713D01*
X129374819Y-99166666D02*
X128898628Y-99499999D01*
X129374819Y-99738094D02*
X128374819Y-99738094D01*
X128374819Y-99738094D02*
X128374819Y-99357142D01*
X128374819Y-99357142D02*
X128422438Y-99261904D01*
X128422438Y-99261904D02*
X128470057Y-99214285D01*
X128470057Y-99214285D02*
X128565295Y-99166666D01*
X128565295Y-99166666D02*
X128708152Y-99166666D01*
X128708152Y-99166666D02*
X128803390Y-99214285D01*
X128803390Y-99214285D02*
X128851009Y-99261904D01*
X128851009Y-99261904D02*
X128898628Y-99357142D01*
X128898628Y-99357142D02*
X128898628Y-99738094D01*
X128374819Y-98309523D02*
X128374819Y-98499999D01*
X128374819Y-98499999D02*
X128422438Y-98595237D01*
X128422438Y-98595237D02*
X128470057Y-98642856D01*
X128470057Y-98642856D02*
X128612914Y-98738094D01*
X128612914Y-98738094D02*
X128803390Y-98785713D01*
X128803390Y-98785713D02*
X129184342Y-98785713D01*
X129184342Y-98785713D02*
X129279580Y-98738094D01*
X129279580Y-98738094D02*
X129327200Y-98690475D01*
X129327200Y-98690475D02*
X129374819Y-98595237D01*
X129374819Y-98595237D02*
X129374819Y-98404761D01*
X129374819Y-98404761D02*
X129327200Y-98309523D01*
X129327200Y-98309523D02*
X129279580Y-98261904D01*
X129279580Y-98261904D02*
X129184342Y-98214285D01*
X129184342Y-98214285D02*
X128946247Y-98214285D01*
X128946247Y-98214285D02*
X128851009Y-98261904D01*
X128851009Y-98261904D02*
X128803390Y-98309523D01*
X128803390Y-98309523D02*
X128755771Y-98404761D01*
X128755771Y-98404761D02*
X128755771Y-98595237D01*
X128755771Y-98595237D02*
X128803390Y-98690475D01*
X128803390Y-98690475D02*
X128851009Y-98738094D01*
X128851009Y-98738094D02*
X128946247Y-98785713D01*
X51859580Y-84586666D02*
X51907200Y-84634285D01*
X51907200Y-84634285D02*
X51954819Y-84777142D01*
X51954819Y-84777142D02*
X51954819Y-84872380D01*
X51954819Y-84872380D02*
X51907200Y-85015237D01*
X51907200Y-85015237D02*
X51811961Y-85110475D01*
X51811961Y-85110475D02*
X51716723Y-85158094D01*
X51716723Y-85158094D02*
X51526247Y-85205713D01*
X51526247Y-85205713D02*
X51383390Y-85205713D01*
X51383390Y-85205713D02*
X51192914Y-85158094D01*
X51192914Y-85158094D02*
X51097676Y-85110475D01*
X51097676Y-85110475D02*
X51002438Y-85015237D01*
X51002438Y-85015237D02*
X50954819Y-84872380D01*
X50954819Y-84872380D02*
X50954819Y-84777142D01*
X50954819Y-84777142D02*
X51002438Y-84634285D01*
X51002438Y-84634285D02*
X51050057Y-84586666D01*
X50954819Y-83729523D02*
X50954819Y-83919999D01*
X50954819Y-83919999D02*
X51002438Y-84015237D01*
X51002438Y-84015237D02*
X51050057Y-84062856D01*
X51050057Y-84062856D02*
X51192914Y-84158094D01*
X51192914Y-84158094D02*
X51383390Y-84205713D01*
X51383390Y-84205713D02*
X51764342Y-84205713D01*
X51764342Y-84205713D02*
X51859580Y-84158094D01*
X51859580Y-84158094D02*
X51907200Y-84110475D01*
X51907200Y-84110475D02*
X51954819Y-84015237D01*
X51954819Y-84015237D02*
X51954819Y-83824761D01*
X51954819Y-83824761D02*
X51907200Y-83729523D01*
X51907200Y-83729523D02*
X51859580Y-83681904D01*
X51859580Y-83681904D02*
X51764342Y-83634285D01*
X51764342Y-83634285D02*
X51526247Y-83634285D01*
X51526247Y-83634285D02*
X51431009Y-83681904D01*
X51431009Y-83681904D02*
X51383390Y-83729523D01*
X51383390Y-83729523D02*
X51335771Y-83824761D01*
X51335771Y-83824761D02*
X51335771Y-84015237D01*
X51335771Y-84015237D02*
X51383390Y-84110475D01*
X51383390Y-84110475D02*
X51431009Y-84158094D01*
X51431009Y-84158094D02*
X51526247Y-84205713D01*
X126783333Y-123374819D02*
X126450000Y-122898628D01*
X126211905Y-123374819D02*
X126211905Y-122374819D01*
X126211905Y-122374819D02*
X126592857Y-122374819D01*
X126592857Y-122374819D02*
X126688095Y-122422438D01*
X126688095Y-122422438D02*
X126735714Y-122470057D01*
X126735714Y-122470057D02*
X126783333Y-122565295D01*
X126783333Y-122565295D02*
X126783333Y-122708152D01*
X126783333Y-122708152D02*
X126735714Y-122803390D01*
X126735714Y-122803390D02*
X126688095Y-122851009D01*
X126688095Y-122851009D02*
X126592857Y-122898628D01*
X126592857Y-122898628D02*
X126211905Y-122898628D01*
X127640476Y-122708152D02*
X127640476Y-123374819D01*
X127402381Y-122327200D02*
X127164286Y-123041485D01*
X127164286Y-123041485D02*
X127783333Y-123041485D01*
X144238095Y-108854819D02*
X144238095Y-109664342D01*
X144238095Y-109664342D02*
X144285714Y-109759580D01*
X144285714Y-109759580D02*
X144333333Y-109807200D01*
X144333333Y-109807200D02*
X144428571Y-109854819D01*
X144428571Y-109854819D02*
X144619047Y-109854819D01*
X144619047Y-109854819D02*
X144714285Y-109807200D01*
X144714285Y-109807200D02*
X144761904Y-109759580D01*
X144761904Y-109759580D02*
X144809523Y-109664342D01*
X144809523Y-109664342D02*
X144809523Y-108854819D01*
X145238095Y-108950057D02*
X145285714Y-108902438D01*
X145285714Y-108902438D02*
X145380952Y-108854819D01*
X145380952Y-108854819D02*
X145619047Y-108854819D01*
X145619047Y-108854819D02*
X145714285Y-108902438D01*
X145714285Y-108902438D02*
X145761904Y-108950057D01*
X145761904Y-108950057D02*
X145809523Y-109045295D01*
X145809523Y-109045295D02*
X145809523Y-109140533D01*
X145809523Y-109140533D02*
X145761904Y-109283390D01*
X145761904Y-109283390D02*
X145190476Y-109854819D01*
X145190476Y-109854819D02*
X145809523Y-109854819D01*
X110374819Y-101116666D02*
X109898628Y-101449999D01*
X110374819Y-101688094D02*
X109374819Y-101688094D01*
X109374819Y-101688094D02*
X109374819Y-101307142D01*
X109374819Y-101307142D02*
X109422438Y-101211904D01*
X109422438Y-101211904D02*
X109470057Y-101164285D01*
X109470057Y-101164285D02*
X109565295Y-101116666D01*
X109565295Y-101116666D02*
X109708152Y-101116666D01*
X109708152Y-101116666D02*
X109803390Y-101164285D01*
X109803390Y-101164285D02*
X109851009Y-101211904D01*
X109851009Y-101211904D02*
X109898628Y-101307142D01*
X109898628Y-101307142D02*
X109898628Y-101688094D01*
X109470057Y-100735713D02*
X109422438Y-100688094D01*
X109422438Y-100688094D02*
X109374819Y-100592856D01*
X109374819Y-100592856D02*
X109374819Y-100354761D01*
X109374819Y-100354761D02*
X109422438Y-100259523D01*
X109422438Y-100259523D02*
X109470057Y-100211904D01*
X109470057Y-100211904D02*
X109565295Y-100164285D01*
X109565295Y-100164285D02*
X109660533Y-100164285D01*
X109660533Y-100164285D02*
X109803390Y-100211904D01*
X109803390Y-100211904D02*
X110374819Y-100783332D01*
X110374819Y-100783332D02*
X110374819Y-100164285D01*
X54174761Y-124990057D02*
X54079523Y-124942438D01*
X54079523Y-124942438D02*
X53984285Y-124847200D01*
X53984285Y-124847200D02*
X53841428Y-124704342D01*
X53841428Y-124704342D02*
X53746190Y-124656723D01*
X53746190Y-124656723D02*
X53650952Y-124656723D01*
X53698571Y-124894819D02*
X53603333Y-124847200D01*
X53603333Y-124847200D02*
X53508095Y-124751961D01*
X53508095Y-124751961D02*
X53460476Y-124561485D01*
X53460476Y-124561485D02*
X53460476Y-124228152D01*
X53460476Y-124228152D02*
X53508095Y-124037676D01*
X53508095Y-124037676D02*
X53603333Y-123942438D01*
X53603333Y-123942438D02*
X53698571Y-123894819D01*
X53698571Y-123894819D02*
X53889047Y-123894819D01*
X53889047Y-123894819D02*
X53984285Y-123942438D01*
X53984285Y-123942438D02*
X54079523Y-124037676D01*
X54079523Y-124037676D02*
X54127142Y-124228152D01*
X54127142Y-124228152D02*
X54127142Y-124561485D01*
X54127142Y-124561485D02*
X54079523Y-124751961D01*
X54079523Y-124751961D02*
X53984285Y-124847200D01*
X53984285Y-124847200D02*
X53889047Y-124894819D01*
X53889047Y-124894819D02*
X53698571Y-124894819D01*
X55079523Y-124894819D02*
X54508095Y-124894819D01*
X54793809Y-124894819D02*
X54793809Y-123894819D01*
X54793809Y-123894819D02*
X54698571Y-124037676D01*
X54698571Y-124037676D02*
X54603333Y-124132914D01*
X54603333Y-124132914D02*
X54508095Y-124180533D01*
X41484819Y-52516666D02*
X41484819Y-52992856D01*
X41484819Y-52992856D02*
X40484819Y-52992856D01*
X41484819Y-51659523D02*
X41484819Y-52230951D01*
X41484819Y-51945237D02*
X40484819Y-51945237D01*
X40484819Y-51945237D02*
X40627676Y-52040475D01*
X40627676Y-52040475D02*
X40722914Y-52135713D01*
X40722914Y-52135713D02*
X40770533Y-52230951D01*
X131783333Y-123374819D02*
X131450000Y-122898628D01*
X131211905Y-123374819D02*
X131211905Y-122374819D01*
X131211905Y-122374819D02*
X131592857Y-122374819D01*
X131592857Y-122374819D02*
X131688095Y-122422438D01*
X131688095Y-122422438D02*
X131735714Y-122470057D01*
X131735714Y-122470057D02*
X131783333Y-122565295D01*
X131783333Y-122565295D02*
X131783333Y-122708152D01*
X131783333Y-122708152D02*
X131735714Y-122803390D01*
X131735714Y-122803390D02*
X131688095Y-122851009D01*
X131688095Y-122851009D02*
X131592857Y-122898628D01*
X131592857Y-122898628D02*
X131211905Y-122898628D01*
X132688095Y-122374819D02*
X132211905Y-122374819D01*
X132211905Y-122374819D02*
X132164286Y-122851009D01*
X132164286Y-122851009D02*
X132211905Y-122803390D01*
X132211905Y-122803390D02*
X132307143Y-122755771D01*
X132307143Y-122755771D02*
X132545238Y-122755771D01*
X132545238Y-122755771D02*
X132640476Y-122803390D01*
X132640476Y-122803390D02*
X132688095Y-122851009D01*
X132688095Y-122851009D02*
X132735714Y-122946247D01*
X132735714Y-122946247D02*
X132735714Y-123184342D01*
X132735714Y-123184342D02*
X132688095Y-123279580D01*
X132688095Y-123279580D02*
X132640476Y-123327200D01*
X132640476Y-123327200D02*
X132545238Y-123374819D01*
X132545238Y-123374819D02*
X132307143Y-123374819D01*
X132307143Y-123374819D02*
X132211905Y-123327200D01*
X132211905Y-123327200D02*
X132164286Y-123279580D01*
X115548095Y-89544819D02*
X115548095Y-90354342D01*
X115548095Y-90354342D02*
X115595714Y-90449580D01*
X115595714Y-90449580D02*
X115643333Y-90497200D01*
X115643333Y-90497200D02*
X115738571Y-90544819D01*
X115738571Y-90544819D02*
X115929047Y-90544819D01*
X115929047Y-90544819D02*
X116024285Y-90497200D01*
X116024285Y-90497200D02*
X116071904Y-90449580D01*
X116071904Y-90449580D02*
X116119523Y-90354342D01*
X116119523Y-90354342D02*
X116119523Y-89544819D01*
X117119523Y-90544819D02*
X116548095Y-90544819D01*
X116833809Y-90544819D02*
X116833809Y-89544819D01*
X116833809Y-89544819D02*
X116738571Y-89687676D01*
X116738571Y-89687676D02*
X116643333Y-89782914D01*
X116643333Y-89782914D02*
X116548095Y-89830533D01*
X57154819Y-140738094D02*
X56154819Y-140738094D01*
X56154819Y-140738094D02*
X56154819Y-140499999D01*
X56154819Y-140499999D02*
X56202438Y-140357142D01*
X56202438Y-140357142D02*
X56297676Y-140261904D01*
X56297676Y-140261904D02*
X56392914Y-140214285D01*
X56392914Y-140214285D02*
X56583390Y-140166666D01*
X56583390Y-140166666D02*
X56726247Y-140166666D01*
X56726247Y-140166666D02*
X56916723Y-140214285D01*
X56916723Y-140214285D02*
X57011961Y-140261904D01*
X57011961Y-140261904D02*
X57107200Y-140357142D01*
X57107200Y-140357142D02*
X57154819Y-140499999D01*
X57154819Y-140499999D02*
X57154819Y-140738094D01*
X57154819Y-139214285D02*
X57154819Y-139785713D01*
X57154819Y-139499999D02*
X56154819Y-139499999D01*
X56154819Y-139499999D02*
X56297676Y-139595237D01*
X56297676Y-139595237D02*
X56392914Y-139690475D01*
X56392914Y-139690475D02*
X56440533Y-139785713D01*
X133783333Y-100424819D02*
X133450000Y-99948628D01*
X133211905Y-100424819D02*
X133211905Y-99424819D01*
X133211905Y-99424819D02*
X133592857Y-99424819D01*
X133592857Y-99424819D02*
X133688095Y-99472438D01*
X133688095Y-99472438D02*
X133735714Y-99520057D01*
X133735714Y-99520057D02*
X133783333Y-99615295D01*
X133783333Y-99615295D02*
X133783333Y-99758152D01*
X133783333Y-99758152D02*
X133735714Y-99853390D01*
X133735714Y-99853390D02*
X133688095Y-99901009D01*
X133688095Y-99901009D02*
X133592857Y-99948628D01*
X133592857Y-99948628D02*
X133211905Y-99948628D01*
X134116667Y-99424819D02*
X134783333Y-99424819D01*
X134783333Y-99424819D02*
X134354762Y-100424819D01*
D11*
%TO.C,C10*%
X155735000Y-108738748D02*
X155735000Y-109261252D01*
X154265000Y-108738748D02*
X154265000Y-109261252D01*
%TO.C,C9*%
X130735000Y-98738748D02*
X130735000Y-99261252D01*
X129265000Y-98738748D02*
X129265000Y-99261252D01*
%TO.C,C8*%
X133265000Y-125261252D02*
X133265000Y-124738748D01*
X134735000Y-125261252D02*
X134735000Y-124738748D01*
%TO.C,C7*%
X131735000Y-124738748D02*
X131735000Y-125261252D01*
X130265000Y-124738748D02*
X130265000Y-125261252D01*
%TO.C,C4*%
X136261252Y-77735000D02*
X135738748Y-77735000D01*
X136261252Y-76265000D02*
X135738748Y-76265000D01*
%TO.C,C3*%
X129261252Y-77735000D02*
X128738748Y-77735000D01*
X129261252Y-76265000D02*
X128738748Y-76265000D01*
%TO.C,C2*%
X81261252Y-120735000D02*
X80738748Y-120735000D01*
X81261252Y-119265000D02*
X80738748Y-119265000D01*
%TO.C,C1*%
X81261252Y-108735000D02*
X80738748Y-108735000D01*
X81261252Y-107265000D02*
X80738748Y-107265000D01*
%TO.C,R13*%
X125749359Y-112579905D02*
G75*
G02*
X124300000Y-112482867I-749359J-320095D01*
G01*
%TO.C,R12*%
X155749359Y-114579905D02*
G75*
G02*
X154300000Y-114482867I-749359J-320095D01*
G01*
%TO.C,R11*%
X144579905Y-99250641D02*
G75*
G02*
X144482867Y-100700000I320095J-749359D01*
G01*
%TO.C,R10*%
X152320095Y-105749359D02*
G75*
G02*
X152417133Y-104300000I-320095J749359D01*
G01*
%TO.C,R9*%
X98420095Y-58749359D02*
G75*
G02*
X98517133Y-57300000I-320095J749359D01*
G01*
%TO.C,R8*%
X151579905Y-76250641D02*
G75*
G02*
X151482867Y-77700000I320095J-749359D01*
G01*
%TO.C,J4*%
X185250000Y-117000000D02*
X185250000Y-87000000D01*
X174750000Y-87000000D02*
X174750000Y-117000000D01*
X185250000Y-117000000D02*
G75*
G02*
X174750000Y-117000000I-5250000J0D01*
G01*
X174750000Y-87000000D02*
G75*
G02*
X185250000Y-87000000I5250000J0D01*
G01*
%TO.C,J3*%
X97750000Y-142000000D02*
X97750000Y-172000000D01*
X108250000Y-172000000D02*
X108250000Y-142000000D01*
X97750000Y-142000000D02*
G75*
G02*
X108250000Y-142000000I5250000J0D01*
G01*
X108250000Y-172000000D02*
G75*
G02*
X97750000Y-172000000I-5250000J0D01*
G01*
%TO.C,R1*%
X103320095Y-93749359D02*
G75*
G02*
X103417133Y-92300000I-320095J749359D01*
G01*
%TO.C,J2*%
X84750000Y-22500000D02*
X84750000Y-52500000D01*
X95250000Y-52500000D02*
X95250000Y-22500000D01*
X84750000Y-22500000D02*
G75*
G02*
X95250000Y-22500000I5250000J0D01*
G01*
X95250000Y-52500000D02*
G75*
G02*
X84750000Y-52500000I-5250000J0D01*
G01*
%TO.C,K1*%
X62240000Y-131010000D02*
X62240000Y-151030000D01*
X62240000Y-151030000D02*
X67780000Y-151030000D01*
X64010000Y-131010000D02*
X62240000Y-131010000D01*
X67780000Y-131010000D02*
X66010000Y-131010000D01*
X67780000Y-151030000D02*
X67780000Y-131010000D01*
X66010000Y-131010000D02*
G75*
G02*
X64010000Y-131010000I-1000000J0D01*
G01*
%TO.C,Y1*%
X91330000Y-118975000D02*
X91330000Y-108685000D01*
X100670000Y-118975000D02*
X100670000Y-108685000D01*
X100670000Y-118975000D02*
G75*
G02*
X91330000Y-118975000I-4670000J0D01*
G01*
X91330000Y-108685000D02*
G75*
G02*
X100670000Y-108685000I4670000J0D01*
G01*
%TO.C,J1*%
X40750000Y-144000000D02*
X40750000Y-174000000D01*
X51250000Y-174000000D02*
X51250000Y-144000000D01*
X40750000Y-144000000D02*
G75*
G02*
X51250000Y-144000000I5250000J0D01*
G01*
X51250000Y-174000000D02*
G75*
G02*
X40750000Y-174000000I-5250000J0D01*
G01*
%TO.C,R3*%
X106320095Y-121749359D02*
G75*
G02*
X106417133Y-120300000I-320095J749359D01*
G01*
%TO.C,U3*%
X101950000Y-48300000D02*
X101950000Y-63900000D01*
X101950000Y-63900000D02*
X106050000Y-65300000D01*
X106050000Y-45550000D02*
X106050000Y-46800000D01*
X106050000Y-46800000D02*
X101950000Y-48300000D01*
X106050000Y-65300000D02*
X106050000Y-72950000D01*
X106050000Y-72950000D02*
X107100000Y-72950000D01*
X107100000Y-42700000D02*
X107100000Y-45550000D01*
X107100000Y-45550000D02*
X106050000Y-45550000D01*
X107100000Y-72950000D02*
X107100000Y-75800000D01*
X111900000Y-45550000D02*
X111900000Y-42700000D01*
X111900000Y-72950000D02*
X172100000Y-72950000D01*
X111900000Y-75800000D02*
X111900000Y-72950000D01*
X148200000Y-74800000D02*
X149000000Y-73400000D01*
X148200000Y-74800000D02*
X149800000Y-74800000D01*
X149000000Y-73400000D02*
X149800000Y-74800000D01*
X172100000Y-42700000D02*
X172100000Y-45550000D01*
X172100000Y-45550000D02*
X111900000Y-45550000D01*
X172100000Y-72950000D02*
X172100000Y-75800000D01*
X176900000Y-45550000D02*
X176900000Y-42700000D01*
X176900000Y-72950000D02*
X177950000Y-72950000D01*
X176900000Y-75800000D02*
X176900000Y-72950000D01*
X177950000Y-45550000D02*
X176900000Y-45550000D01*
X177950000Y-72950000D02*
X177950000Y-45550000D01*
X107100000Y-42700000D02*
G75*
G02*
X111900000Y-42700000I2400000J0D01*
G01*
X111900000Y-75800000D02*
G75*
G02*
X107100000Y-75800000I-2400000J0D01*
G01*
X172100000Y-42700000D02*
G75*
G02*
X176900000Y-42700000I2400000J0D01*
G01*
X176900000Y-75800000D02*
G75*
G02*
X172100000Y-75800000I-2400000J0D01*
G01*
%TO.C,C5*%
X71470000Y-67820000D02*
X71470000Y-101060000D01*
X84710000Y-67820000D02*
X71470000Y-67820000D01*
X84710000Y-67820000D02*
X84710000Y-101060000D01*
X84710000Y-101060000D02*
X71470000Y-101060000D01*
%TO.C,R6*%
X126250641Y-98370095D02*
G75*
G02*
X127700000Y-98467133I749359J320095D01*
G01*
%TO.C,C6*%
X37130000Y-67800000D02*
X37130000Y-101040000D01*
X50370000Y-67800000D02*
X37130000Y-67800000D01*
X50370000Y-67800000D02*
X50370000Y-101040000D01*
X50370000Y-101040000D02*
X37130000Y-101040000D01*
%TO.C,R4*%
X127579905Y-120250641D02*
G75*
G02*
X127482867Y-121700000I320095J-749359D01*
G01*
%TO.C,U2*%
X145000000Y-108560000D02*
X146950000Y-108560000D01*
X145000000Y-108560000D02*
X143050000Y-108560000D01*
X145000000Y-103440000D02*
X146950000Y-103440000D01*
X145000000Y-103440000D02*
X143050000Y-103440000D01*
X147940000Y-108795000D02*
X147460000Y-108795000D01*
X147700000Y-108465000D01*
X147940000Y-108795000D01*
G36*
X147940000Y-108795000D02*
G01*
X147460000Y-108795000D01*
X147700000Y-108465000D01*
X147940000Y-108795000D01*
G37*
%TO.C,R2*%
X107250641Y-100320095D02*
G75*
G02*
X108700000Y-100417133I749359J320095D01*
G01*
%TO.C,Q1*%
X52470000Y-129850000D02*
X56070000Y-129850000D01*
X52431522Y-129838478D02*
G75*
G02*
X54270000Y-125399999I1838478J1838478D01*
G01*
X54270000Y-125400000D02*
G75*
G02*
X56108478Y-129838478I0J-2600000D01*
G01*
%TO.C,L1*%
X51530000Y-63550000D02*
X55530000Y-63550000D01*
X42170000Y-63310000D02*
X78390000Y-63310000D01*
X78390000Y-41390000D01*
X42170000Y-41390000D01*
X42170000Y-63310000D01*
%TO.C,R5*%
X132579905Y-120250641D02*
G75*
G02*
X132482867Y-121700000I320095J-749359D01*
G01*
%TO.C,U1*%
X117310000Y-91090000D02*
G75*
G02*
X115310000Y-91090000I-1000000J0D01*
G01*
X118960000Y-126770000D02*
X118960000Y-91090000D01*
X118960000Y-91090000D02*
X117310000Y-91090000D01*
X115310000Y-91090000D02*
X113660000Y-91090000D01*
X113660000Y-126770000D02*
X118960000Y-126770000D01*
X113660000Y-91090000D02*
X113660000Y-126770000D01*
%TO.C,D1*%
X57400000Y-141260000D02*
X58600000Y-141260000D01*
X57400000Y-139300000D02*
X57400000Y-141260000D01*
X58600000Y-139300000D02*
X58600000Y-141260000D01*
%TO.C,R7*%
X134579905Y-97300641D02*
G75*
G02*
X134482867Y-98750000I320095J-749359D01*
G01*
%TD*%
M02*
